<?xml version="1.0" standalone="no"?>
<!DOCTYPE svg PUBLIC "-//W3C//DTD SVG 20010904//EN"
 "http://www.w3.org/TR/2001/REC-SVG-20010904/DTD/svg10.dtd">
<svg version="1.0" xmlns="http://www.w3.org/2000/svg"
 width="700.000000pt" height="700.000000pt" viewBox="0 0 700.000000 700.000000"
 preserveAspectRatio="xMidYMid meet">
<metadata>
Created by potrace 1.14, written by Peter Selinger 2001-2017
</metadata>
<g transform="translate(0.000000,700.000000) scale(0.100000,-0.100000)"
fill="#000000" stroke="none">
<path d="M3318 6915 c-2 -1 -43 -5 -93 -9 -127 -10 -168 -14 -270 -31 -133
-22 -140 -23 -271 -55 -883 -212 -1662 -787 -2129 -1571 -249 -419 -406 -886
-460 -1369 -3 -30 -8 -72 -10 -92 l-4 -38 107 0 c59 0 635 -1 1279 -1 1296 0
1221 4 1301 -64 107 -92 112 -255 12 -356 -83 -83 -7 -78 -1178 -78 -570 -1
-1146 -1 -1279 -1 l-243 0 5 -32 c2 -18 7 -62 10 -98 5 -54 23 -173 50 -325
13 -71 77 -300 115 -410 133 -384 317 -714 584 -1045 195 -242 452 -478 721
-662 159 -109 411 -247 585 -321 96 -41 123 -51 230 -88 108 -37 340 -102 412
-114 18 -4 51 -10 73 -15 44 -9 92 -17 163 -26 26 -3 58 -7 72 -9 53 -8 229
-18 315 -19 l90 -1 3 1153 2 1152 -644 0 c-732 0 -713 -2 -791 77 -134 133
-74 354 111 411 18 6 345 10 820 10 746 0 792 -1 839 -19 64 -24 119 -77 142
-137 17 -45 18 -115 18 -1329 l0 -1282 30 4 c88 12 205 37 325 69 986 257
1802 937 2236 1861 97 205 205 520 240 700 2 11 11 56 20 100 9 44 17 89 19
100 4 37 17 130 21 149 24 130 24 604 -1 796 -69 544 -251 1040 -542 1479
-259 390 -585 716 -966 968 -319 211 -667 366 -1023 458 -143 37 -147 38 -279
61 -104 18 -121 20 -195 29 -30 3 -73 9 -95 12 -39 5 -472 12 -477 8z"/>
</g>
</svg>
